<?xml version="1.0" encoding="utf-8" ?>
<svg xmlns="http://www.w3.org/2000/svg" xmlns:xlink="http://www.w3.org/1999/xlink" width="1024" height="1024">
	<path d="M651.528 469.463C650.779 449.16 651.842 428.583 651.967 408.25L652.089 376.631C652.109 370.218 651.23 362.111 652.912 355.917C654.213 351.122 658.754 345.279 663.091 342.77C666.167 340.991 669.596 340.011 673.115 339.617C680.691 338.769 688.62 339.71 696.253 339.756C705.454 339.812 714.835 339.098 724.009 339.605C725.99 339.707 727.953 340.033 729.86 340.578C735.903 342.254 741.015 346.296 744.04 351.789C745.876 355.085 747.258 358.678 747.463 362.47C747.855 369.736 747.584 377.132 747.576 384.409L747.596 422.419L747.521 550.053L747.542 625.773C747.544 633.428 748.6 656.088 746.782 662.103C745.124 667.587 743.336 672.306 739.177 676.465C733.088 682.551 726.014 684.395 717.616 684.453C706.148 684.273 681.117 685.915 671.265 683.173C666.984 682.015 663.088 679.741 659.974 676.583C656.869 673.487 654.267 669.383 653.302 665.068C651.331 656.258 652.52 638.262 652.518 628.563L652.471 551.976C628.295 552.372 604.067 552.021 579.883 552.012C510.462 551.988 440.996 551.311 371.582 552.042L371.835 625.905C371.878 637.023 372.959 651.374 371.469 662.138C370.78 667.121 369.377 672.18 366.099 676.093C361.803 681.221 356.506 683.918 349.852 684.489C343.711 685.016 337.196 684.458 331.007 684.443C320.33 684.418 306.985 685.853 296.701 683.653C292.252 682.715 288.117 680.658 284.687 677.675C280.154 673.678 276.37 666.976 276.129 660.831C275.221 637.738 275.733 614.48 275.713 591.365L275.689 470.026L275.786 405.907C275.684 390.614 274.577 374.467 276.408 359.295C276.925 355.018 279.177 351.069 282.142 347.971C288.28 341.556 296.04 339.897 304.528 339.797C305.419 339.953 305.048 339.942 305.91 339.894C312.823 339.508 319.839 339.974 326.762 340.068C332.215 340.141 337.655 339.873 343.106 339.818C351.657 339.731 358.434 340.657 364.719 347.082C368.232 350.673 370.055 354.706 370.934 359.593C373.094 371.613 371.87 386.391 371.868 398.774L371.911 470.136L651.528 469.463Z"/>
	<path d="M226.27 383.243C231.961 383.159 237.902 382.759 243.548 383.55C248.125 384.191 253.098 386.028 255.882 389.932C257.757 392.562 259.588 396.376 259.88 399.586C260.376 405.028 260.108 410.705 260.124 416.172L260.151 447.05L260.191 541.259L260.315 592.993C260.364 601.84 261.622 613.099 259.801 621.598C258.604 627.189 255.805 632.508 250.785 635.515C243.195 640.062 223.456 639.909 215.149 637.889C210.198 636.685 204.402 634.249 201.669 629.766C199.493 626.929 198.37 624.094 197.775 620.56C196.453 612.72 197.181 604.064 197.18 596.11L197.174 551.502C188.041 552.063 170.789 553.932 163.758 547.488C159.419 543.511 157.717 538.183 157.509 532.473C157.156 522.741 157.414 512.901 157.419 503.159C157.422 497.34 156.648 490.255 157.879 484.62C158.676 480.972 160.869 477.271 163.467 474.623C170.776 467.176 187.403 469.444 197.296 469.416C197.016 456.162 197.319 442.868 197.29 429.606C197.271 421.053 196.135 407.927 197.912 399.784C198.764 395.896 200.683 392.324 203.454 389.467C209.847 382.962 217.902 383.249 226.27 383.243Z"/>
	<path d="M780.507 383.568C784.045 383.273 787.706 383.365 791.259 383.325C801.445 383.208 812.351 382.502 820.106 390.446C823.197 393.614 825.035 397.627 825.936 401.922C827.595 409.831 826.595 419.395 826.582 427.506L826.633 469.496C836.445 469.367 850.763 467.156 858.325 474.388C864.305 480.108 865.24 486.226 865.492 494.084C865.783 503.154 866.39 531.104 864.305 538.305C863.422 541.351 861.248 544.507 859.045 546.753C851.772 554.165 836.265 551.889 826.59 551.96L826.64 616.284C825.871 620.098 825.296 623.544 823.381 627.014C820.44 632.344 815.451 635.601 809.706 637.269C800.766 639.865 781.372 640.353 773.418 635.666C768.712 632.892 765.939 627.793 764.695 622.574C763.09 615.843 764.111 606.788 764.104 599.827L764.086 554.154L764.078 454.781C764.079 437.492 763.286 419.755 764.266 402.516C764.481 398.746 764.976 395.63 766.965 392.315C770.132 387.035 774.806 384.98 780.507 383.568Z"/>
</svg>
