<?xml version="1.0" encoding="utf-8" ?>
<svg xmlns="http://www.w3.org/2000/svg" xmlns:xlink="http://www.w3.org/1999/xlink" width="2000" height="1500">
	<path d="M446.727 391.707L519.392 391.699C524.509 420.278 527.689 449.53 531.729 478.293L552.702 628.736L585.788 391.704L658.525 391.694L658.594 717.412L610.406 717.426L610.444 502.686C610.62 490.912 610.595 479.136 610.369 467.363C604.822 488.702 602.393 517.25 599.032 539.718C590.189 598.837 582.731 658.596 572.04 717.385L529.685 717.383C525.438 697.813 523.381 677.19 520.366 657.329L502.642 539.523C499.059 515.216 496.152 490.67 491.381 466.562C489.903 494.918 491.21 523.486 491.219 551.877L491.2 717.32C476.38 717.596 461.503 717.373 446.677 717.386C445.815 658.094 446.604 598.67 446.598 539.363C446.593 490.206 445.607 440.842 446.727 391.707Z"/>
	<path fill="#DADAD9" d="M529.726 782.715C543.631 781.791 557.926 782.421 571.876 782.387C583.486 845.41 590.927 909.482 601.221 972.771C604.361 992.074 605.872 1012.31 610.518 1031.28C612.252 1006.44 610.304 980.257 610.345 955.26L610.487 782.743C626.312 782.164 642.304 782.5 658.146 782.418C659.224 805.532 658.542 828.905 658.516 852.051L658.357 1006.47C658.336 1040.36 657.907 1074.34 658.97 1108.2C635.146 1106.13 610.198 1107.58 586.25 1107.64L552.351 873.593L529.898 1033.56C526.495 1058.3 521.476 1083.3 519.444 1108.17L447.183 1108.13L447.311 879.66L447.261 815.301C447.222 807.016 446.575 798.709 446.791 790.431C446.859 787.788 446.785 785.569 448.078 783.203L450.792 782.648C463.947 782.671 477.103 782.603 490.257 782.444C491.766 841.849 490.748 901.643 491.016 961.091C491.122 984.686 489.307 1009.26 491.458 1032.7C495.067 1016.16 496.973 999.049 499.436 982.305L510.87 906.628L523.3 827.129C525.59 812.398 528.384 797.563 529.726 782.715Z"/>
	<path d="M1471.05 387.139C1491.17 387.483 1510.93 391.286 1526.08 405.467C1542.05 420.408 1548.16 441.244 1548.97 462.6C1550.44 501.209 1549.24 540.313 1549.24 578.966C1549.24 603.767 1551.69 640.793 1547.09 664.221C1544.57 677.094 1538.44 690.974 1529.36 700.568C1514.03 716.759 1493.39 721.352 1471.93 721.917C1451.84 721.586 1431.93 717.549 1416.7 703.493C1400.54 688.572 1395.03 666.906 1394.05 645.661C1392.35 608.79 1393.7 571.291 1393.72 534.362C1393.73 508.205 1391.18 468.901 1396.25 443.971C1398.8 431.407 1404.96 418.049 1413.72 408.601C1428.93 392.216 1449.66 388.101 1471.05 387.139ZM1478.62 675.21C1485.64 672.604 1491.25 669.787 1494.7 662.628C1497.07 657.704 1497.48 651.868 1497.82 646.487C1499.69 617.022 1498.15 586.496 1498.15 556.934C1498.16 526.254 1499.66 494.691 1497.87 464.098C1497.55 458.677 1496.91 451.571 1494.77 446.559C1492.6 441.497 1487.37 437.151 1482.28 435.299C1476.79 433.303 1470.78 433.307 1465.03 433.88C1458.09 436.206 1452.56 438.954 1448.92 445.766C1446.75 449.816 1445.94 453.84 1445.56 458.361C1443.22 486.406 1445.02 517.414 1445.02 545.713C1445.02 578.409 1443.42 612.006 1445.31 644.61C1445.64 650.257 1446.32 656.83 1448.21 662.199C1449.94 667.131 1453.95 671.09 1458.72 673.161C1465 675.885 1471.94 675.977 1478.62 675.21Z"/>
	<path fill="#DADAD9" d="M1457.07 778.646C1477.58 776.946 1499.25 777.963 1516.98 789.598C1533.28 800.29 1543.36 817.866 1547.04 836.746C1550.25 853.185 1549.07 870.905 1549.04 887.608L1548.94 957.079L1549.01 1010.82C1549.03 1023.23 1549.59 1035.94 1547.91 1048.26C1546.24 1060.48 1542.24 1072.52 1535.21 1082.72C1523.25 1100.1 1507.43 1107.91 1487.08 1111.54C1465.86 1114.44 1440.86 1112.07 1423.07 1099.17C1406.98 1087.5 1398.18 1068.61 1395.22 1049.35C1393 1034.85 1393.66 1019.78 1393.69 1005.15L1393.7 946.243L1393.54 885.087C1393.51 870.552 1392.75 855.596 1394.91 841.187C1396.8 828.521 1401.29 815.389 1408.98 805.029C1420.69 789.238 1438.02 781.395 1457.07 778.646ZM1477.82 1066.41C1485.11 1064.22 1491.1 1061.07 1494.78 1053.99C1497.26 1049.2 1497.78 1044.37 1498.14 1039.07C1499.86 1013.77 1498.3 987.662 1498.29 962.262C1498.27 939.375 1500.95 855.527 1495.69 838.413C1494.2 833.541 1488.5 828.821 1484.12 826.798C1478.13 824.027 1471.77 823.737 1465.27 824.357C1457.14 826.931 1451.01 830.799 1446.92 838.664C1444.67 842.997 1444.32 847.802 1444.08 852.601C1442.64 880.425 1444.25 909.015 1444.28 936.936C1444.31 968.434 1442.84 1000.77 1444.73 1032.18C1445.14 1038.98 1445.85 1047.09 1448.28 1053.52C1450.06 1058.26 1454.53 1062.23 1459.11 1064.19C1465.18 1066.78 1471.36 1066.79 1477.82 1066.41Z"/>
	<path d="M883.616 391.704C911.095 391.483 966.845 388.515 991.44 395.797C1007.01 400.407 1018.68 408.892 1026.29 423.434C1038.19 446.171 1038.49 494.557 1030.49 518.799C1025.11 535.113 1015.86 543.779 1000.79 551.375C1003.73 552.493 1006.62 553.748 1009.45 555.137C1052.53 576.844 1026.43 674.194 1040.77 717.213C1023.6 718.018 1006.16 717.488 988.969 717.403C983.755 701.018 984.41 684.433 984.457 667.48C984.371 650.259 984.753 633.029 984.578 615.809C984.469 605.059 983.616 592.915 975.157 585.14C964.687 575.515 947.661 577.438 934.6 577.725L934.583 717.458L883.587 717.501C882.266 608.967 883.59 500.257 883.616 391.704ZM934.651 531.344C949.197 531.498 965.281 533.704 976.891 523.081C986.632 509.233 985.911 477.509 983.18 461.073C982.029 454.146 979.233 446.113 973.153 442.034C963.631 435.644 945.531 438.083 934.596 438.322L934.651 531.344Z"/>
	<path fill="#DADAD9" d="M990.517 782.606L1040.54 782.715C1026.3 826.231 1045.15 881.702 1028.63 922.954C1023.12 936.723 1014.32 942.881 1001.13 948.604C1006.95 951.336 1012.67 954.885 1017.34 959.32C1032.46 973.688 1034.94 995.157 1035.25 1014.95C1035.65 1040.53 1036.01 1070.26 1016.76 1089.81C995.771 1111.11 959.984 1107.79 932.65 1107.79L883.732 1108.06C884.558 1089.78 884.006 1071.28 883.945 1052.98L883.465 782.94C900.507 782.619 917.622 782.919 934.673 782.848C934.87 829.345 934.82 875.842 934.521 922.339C947.383 922.742 966.049 924.604 976.046 914.728C980.063 910.76 982.072 904.689 983.133 899.25C985.207 888.615 984.631 877.367 984.606 866.576C984.56 846.487 983.737 826.065 984.653 806.014C984.958 799.346 985.336 787.359 990.517 782.606ZM934.722 1062.01C948.81 1062.25 963.102 1064.2 975.573 1056.49C987.107 1042.68 985.691 1015.98 984.224 998.794C983.496 990.257 980.911 979.564 973.836 973.995C963.972 966.232 947.729 967.95 935.987 968.171L934.686 969.265C933.688 1000.1 935.115 1031.13 934.722 1062.01Z"/>
	<path d="M736.713 391.71L805.717 391.69L858.952 717.354L807.886 717.412C804.589 698.426 802.184 679.221 799.46 660.141L798.468 654.854C794.027 651.483 749.061 653.484 740.146 653.502C737.038 674.748 733.538 696.026 731.082 717.355C715.238 717.73 699.301 717.41 683.448 717.42C688.185 692.098 691.788 666.444 695.915 641.01C709.381 558.029 721.391 474.348 736.713 391.71ZM746.216 609.477L770.02 609.467L792.417 609.469L776.487 497.191C774.292 481.596 773.243 461.697 769.014 446.951C765.184 464.558 763.759 483.079 761.294 500.951L746.216 609.477Z"/>
	<path fill="#DADAD9" d="M808.039 782.989C824.814 781.994 842.049 782.643 858.872 782.594C846.741 858.44 832.892 933.997 821.942 1010.02L805.607 1108.17C782.714 1107.74 759.816 1107.65 736.921 1107.91C718.941 1001.93 703.306 895.513 684.016 789.788C683.516 787.047 683.516 785.331 685.09 783.105L688.758 782.744C701.447 782.717 716.698 780.653 728.941 783.188C733.318 787.738 738.851 837.27 740.177 846.515C759.663 846.449 779.15 846.491 798.637 846.642C802.47 825.605 804.97 804.16 808.039 782.989ZM769.105 1050.93C770.64 1043.82 771.905 1036.67 772.898 1029.47C775.635 1006.8 779.494 984.263 782.689 961.653C786.036 937.969 788.78 914.175 792.371 890.531L746.198 890.53L763.323 1009.38C765.403 1023.08 766.299 1037.41 769.105 1050.93Z"/>
	<path d="M1651.24 387.206C1665.6 386.57 1680.82 388.395 1693.91 394.575C1709.88 402.109 1720.99 415.388 1726.87 431.909C1731.25 444.194 1736.19 485.743 1730.96 496.878L1682.84 496.907C1686.42 489.676 1685.08 461.592 1682.82 453.231C1680.88 446.056 1676.67 439.643 1669.99 436.074C1663.64 432.686 1655.58 432.004 1648.77 434.273C1642.28 436.434 1637.3 441.219 1634.46 447.394C1631.97 452.812 1631.43 459.223 1631.11 465.104C1629.43 496.545 1631.06 528.916 1631.13 560.457C1631.19 588.495 1629.62 617.129 1631.03 645.085C1631.27 649.758 1631.92 654.505 1633.48 658.934C1635.73 665.311 1639.91 670.927 1646.22 673.711C1653.08 676.736 1662.41 676.156 1669.34 673.482C1674.42 671.522 1678.18 668.177 1680.33 663.174C1682.34 658.492 1683.3 653.053 1683.84 648.014C1684.72 639.812 1685.94 586.512 1683.52 581.378C1683.33 580.961 1683.1 580.558 1682.89 580.148L1657.31 580.116C1660.77 574.454 1658.5 541.94 1658.38 533.81C1682.45 533.354 1706.65 533.636 1730.73 533.766C1731.66 535.448 1732.09 536.609 1732.29 538.548C1733.84 553.896 1732.54 570.646 1732.53 586.115C1732.52 609.181 1734.86 641.061 1730.61 663.217C1728.14 676.091 1723.35 688.655 1714.81 698.75C1702.68 713.062 1685.14 719.995 1666.75 721.485C1644.93 723.253 1621.18 720.014 1604.09 705.245C1588.7 691.942 1582.1 672.159 1580.59 652.381C1579.59 639.379 1580.01 626.174 1580 613.143L1580.01 547.312L1580.02 490.287C1580.04 475.62 1579.32 460.31 1581.91 445.826C1584.2 433.001 1589.77 419.187 1598.41 409.281C1611.93 393.774 1631.47 388.626 1651.24 387.206Z"/>
	<path fill="#DADAD9" d="M1642.15 778.803C1661.98 777.314 1682.15 777.958 1699.74 788.397C1715.36 797.665 1725.16 813.42 1729.45 830.8C1731.06 837.547 1732.01 844.434 1732.29 851.365C1733.22 870.758 1732.28 890.358 1732.37 909.785C1732.45 926.709 1733.91 944.573 1732.32 961.388C1732.16 963.124 1731.63 964.505 1730.73 965.979C1706.18 965.767 1681.62 965.752 1657.06 965.934C1657.52 965.149 1657.52 965.233 1657.88 964.209C1659.8 958.794 1659.63 924.991 1656.88 919.852C1665.53 919.611 1674.22 919.783 1682.88 919.804C1683.4 918.985 1683.79 918.159 1684.14 917.248C1686.01 912.329 1685.68 859.081 1684.89 851.391C1684.4 846.69 1683.37 841.999 1681.23 837.756C1678.31 831.958 1673.51 827.802 1667.33 825.813C1660.2 823.52 1650.97 823.358 1644.32 826.993C1638.26 830.308 1634.47 836.564 1632.68 843.069C1628.32 858.951 1631.11 928.709 1631.06 948.92L1630.86 1007.34C1630.82 1019.15 1630.07 1031.63 1631.61 1043.34C1632.53 1050.39 1635.95 1055.07 1639.38 1061.04C1641.88 1062.26 1644.41 1063.51 1647.01 1064.5C1654.08 1067.18 1663.49 1067.31 1670.3 1063.95C1676.77 1060.76 1680.91 1054.67 1683.03 1047.93C1685.54 1039.94 1687.16 1010.12 1683.52 1002.96L1730.65 1002.95C1731.29 1004.02 1731.82 1004.97 1732.07 1006.21C1733.05 1011.02 1732.51 1016.76 1732.48 1021.66C1732.39 1042.57 1731.35 1063.86 1720.08 1082.21C1711.37 1096.37 1696.63 1106.22 1680.53 1109.97C1658.7 1115.06 1630.67 1113.58 1611.37 1101.22C1595.85 1091.29 1586.67 1075.21 1582.81 1057.49C1578.79 1039.02 1580.02 1019.3 1580.03 1000.49L1580.07 933.199L1580.03 879.874C1580.04 866.858 1579.52 853.577 1581.32 840.661C1582.99 828.61 1586.59 817.589 1593.3 807.4C1605.2 789.317 1621.74 782.892 1642.15 778.803Z"/>
	<path d="M339.7 387.15C340.665 387.118 341.631 387.106 342.597 387.117C362.411 387.264 382.008 392.086 396.075 406.839C415.63 427.348 416.631 455.739 416.172 482.398L368.094 482.429C368.205 468.86 370.142 451.166 360.274 440.311C355.916 435.517 349.746 432.993 343.31 432.933C336.567 432.87 329.878 435.369 325.075 440.155C318.35 446.857 316.501 456.666 316.761 465.812C317.8 502.39 349.28 523.741 373.396 546.53C399.496 571.193 416.458 598.299 417.25 635.304C417.75 658.688 413.56 684.332 396.527 701.685C380.645 717.863 359.866 721.605 338.132 721.805C318.617 721.596 299.251 716.681 285.276 702.311C264.266 680.708 264.477 649.822 264.66 621.726L313.229 621.629C313.005 636.738 310.143 657.23 321.508 669.17C325.984 673.89 332.253 676.487 338.755 676.315C346.258 676.185 353.679 673.307 358.756 667.66C365.017 660.697 366.532 651 366.393 641.955C365.337 573.444 270.589 558.786 265.759 474.215C264.466 451.561 269.044 426.01 284.835 408.783C299.4 392.893 318.941 388.184 339.7 387.15Z"/>
	<path fill="#DADAD9" d="M327.791 778.684C333.437 778.185 339.106 778.018 344.772 778.181C364.302 778.717 384.183 785.589 397.615 800.196C413.883 817.887 418.155 842.509 417.254 865.78C415.35 914.985 385.615 941.61 352.281 972.39C333.75 989.5 317.222 1008.58 316.374 1035.04C316.088 1043.94 318.182 1052.93 324.616 1059.46C329.467 1064.38 336.149 1066.77 342.994 1066.78C349.626 1066.79 355.922 1064.51 360.517 1059.63C370.657 1048.86 368.6 1031.14 368.409 1017.62L415.893 1017.85C416.842 1042.23 415.648 1068 400.136 1088.16C387.835 1104.15 370.915 1109.59 351.684 1112.22C345.816 1112.53 339.822 1112.56 333.951 1112.22C315.46 1111.15 297.624 1105.1 285.042 1090.98C272.352 1076.73 266.637 1057.66 265.782 1038.89C261.351 941.573 363.327 932.892 366.579 858.812C367 849.217 365.708 839.531 358.764 832.269C353.54 826.806 346.564 823.896 339.009 823.862C332.13 823.831 325.378 826.299 320.624 831.394C309.594 843.215 312.466 863.42 312.757 878.272L264.899 878.284C265.642 851.589 263.744 824.688 281.296 802.371C293.049 787.429 309.351 780.921 327.791 778.684Z"/>
	<path d="M1056.6 391.71L1214.65 391.715C1215.01 407.22 1214.7 422.819 1214.7 438.333L1161.19 438.328L1161.2 663.574L1161.17 717.416L1110.15 717.472L1110.19 438.359C1092.35 438.013 1074.44 438.349 1056.59 438.358L1056.6 391.71Z"/>
	<path fill="#DADAD9" d="M1110.33 782.566C1127.22 782.052 1144.24 782.432 1161.13 782.385L1160.85 949.706C1160.65 987.089 1160.72 1024.47 1161.07 1061.85L1215.02 1061.62L1214.88 1108.13C1196.51 1107.44 1178.05 1107.73 1159.67 1107.69L1056.65 1107.94L1056.74 1062.18C1074.16 1060.84 1092.63 1061.68 1110.12 1062.2L1110.33 782.566Z"/>
	<path d="M1239.4 391.738L1290.42 391.754C1291.27 423.352 1290.46 455.184 1290.46 486.812L1290.52 670.926L1374.56 670.903C1375.5 685.945 1374.77 701.381 1374.76 716.467C1372.26 718.529 1253.46 717.477 1239.35 717.48L1239.4 391.738Z"/>
	<path fill="#DADAD9" d="M1255.81 782.732C1295.42 782.158 1335.1 782.562 1374.72 782.515L1374.95 828.938C1346.75 828.271 1318.23 828.399 1290.03 829.087C1288.61 898.184 1290.43 967.491 1290.04 1036.62C1289.92 1060.47 1290.05 1084.32 1290.45 1108.17C1273.47 1107.3 1256.29 1107.75 1239.28 1107.87L1239.45 782.835L1255.81 782.732Z"/>
</svg>
